<svg id="Слой_1" data-name="Слой 1" xmlns="http://www.w3.org/2000/svg" viewBox="0 0 311.3 92.39" fill="black"><title>ecopolis</title><path d="M52.12,17.44A17.62,17.62,0,0,0,34.75,0H0V7.3H34.75a10.36,10.36,0,0,1,9.38,6.46H0v7.3H44.13a10.41,10.41,0,0,1-9.38,6.39H0v7.3H34.75A17.55,17.55,0,0,0,52.12,17.44Z"/><path d="M83.78,27.45a10.25,10.25,0,0,1-10.08-10A10.27,10.27,0,0,1,83.78,7.3V0A17.62,17.62,0,0,0,66.4,17.44,17.55,17.55,0,0,0,83.78,34.75Z"/><polygon points="59.1 0 59.1 34.75 66.4 34.75 66.4 17.44 66.4 0 59.1 0"/><path d="M108.26,34.75a17.54,17.54,0,0,0,17.3-17.38h-.07a17.38,17.38,0,0,0-34.75,0h.07A17.62,17.62,0,0,0,108.26,34.75ZM108.19,7.3a10.24,10.24,0,0,1,10,10.07h.07a10.08,10.08,0,1,1-20.15,0H98A10.28,10.28,0,0,1,108.19,7.3Z"/><polygon points="167.28 34.75 167.28 0 132.53 0 132.53 34.75 139.83 34.75 139.83 7.3 159.98 7.3 159.98 34.75 167.28 34.75"/><path d="M191.77,34.75a17.54,17.54,0,0,0,17.3-17.38H209a17.38,17.38,0,0,0-34.75,0h.08A17.62,17.62,0,0,0,191.77,34.75ZM191.7,7.3a10.25,10.25,0,0,1,10,10.07h.07a10.08,10.08,0,1,1-20.16,0h-.07A10.28,10.28,0,0,1,191.7,7.3Z"/><path d="M243.5,7.3V34.75h7.29V0H216.05V7.3a10.27,10.27,0,0,1,10.07,10.14,10.25,10.25,0,0,1-10.07,10v7.3a17.55,17.55,0,0,0,17.37-17.31A17.18,17.18,0,0,0,230.08,7.3Z"/><rect x="265.06" y="17.37" width="7.3" height="8.69"/><polygon points="279.66 34.68 286.95 34.68 286.95 17.3 279.66 17.3 279.66 8.69 272.36 8.69 272.36 17.37 279.66 17.37 279.66 34.68"/><rect x="279.66" width="7.3" height="8.69"/><rect x="257.76" width="7.3" height="17.37"/><rect x="257.76" y="26.06" width="7.3" height="8.69"/><path d="M311.3,7.3V0a17.62,17.62,0,0,0-17.38,17.44A17.55,17.55,0,0,0,311.3,34.75v-7.3a10.25,10.25,0,0,1-10.08-10A10.27,10.27,0,0,1,311.3,7.3Z"/><polygon points="0 48.95 0 83.7 7.3 83.7 7.3 66.4 7.3 48.95 0 48.95"/><path d="M7.3,66.4A17.54,17.54,0,0,0,24.67,83.7V76.41a10.08,10.08,0,1,1,0-20.16V49A17.63,17.63,0,0,0,7.3,66.4Z"/><path d="M49.08,49A17.63,17.63,0,0,0,31.64,66.33h.07a17.38,17.38,0,0,0,34.75,0h-.07A17.56,17.56,0,0,0,49.08,49Zm.07,27.46A10.28,10.28,0,0,1,39,66.33h-.07a10.08,10.08,0,1,1,20.15,0h.07A10.26,10.26,0,0,1,49.15,76.41Z"/><path d="M79.33,49H72V92.39h7.29V83.7a17.38,17.38,0,1,0,0-34.75Zm0,27.46V56.25a10.08,10.08,0,1,1,0,20.16Z"/><path d="M102.29,66.4a17.54,17.54,0,0,0,17.37,17.3h34.75V76.41H119.66a10.08,10.08,0,1,1,0-20.16h34.75V49H119.66A17.63,17.63,0,0,0,102.29,66.4Z"/><path d="M161.39,83.7h7.3a10.08,10.08,0,1,1,20.15,0h7.3V49H161.39Zm7.3-27.45h20.15V69.59a17.05,17.05,0,0,0-20.15.07Z"/><polygon points="203.11 48.95 203.11 83.7 210.41 83.7 210.41 66.4 210.41 48.95 203.11 48.95"/><path d="M210.41,66.4a17.54,17.54,0,0,0,17.37,17.3V76.41a10.08,10.08,0,0,1,0-20.16V49A17.63,17.63,0,0,0,210.41,66.4Z"/><path d="M252.19,49a17.63,17.63,0,0,0-17.44,17.38h.07a17.38,17.38,0,0,0,34.75,0h-.07A17.56,17.56,0,0,0,252.19,49Zm.07,27.46a10.28,10.28,0,0,1-10.14-10.08H242a10.08,10.08,0,1,1,20.16,0h.07A10.26,10.26,0,0,1,252.26,76.41Z"/><path d="M276.54,83.7h34.75V49H276.54Zm7.3-27.45H304v6.46H283.84Zm0,13.76H304v6.4H283.84Z"/></svg>