<svg id="Слой_1" data-name="Слой 1" xmlns="http://www.w3.org/2000/svg" viewBox="0 0 311 29.09" fill="grey"><title>newzemla</title><path d="M81.83,5a13.59,13.59,0,0,0-4.44-2.9,14.31,14.31,0,0,0-10.51,0A13.52,13.52,0,0,0,62.43,5a13.17,13.17,0,0,0-4,9.54,13,13,0,0,0,4,9.52A13.81,13.81,0,0,0,72.15,28a13.73,13.73,0,0,0,5.21-1,14.28,14.28,0,0,0,4.47-2.92,13.49,13.49,0,0,0,3-4.35,13.56,13.56,0,0,0,0-10.32A13.65,13.65,0,0,0,81.83,5Zm-1,13.22a9.76,9.76,0,0,1-2,3.1,9.42,9.42,0,0,1-3,2.08,9.26,9.26,0,0,1-7.16,0,9.11,9.11,0,0,1-3-2.08,9.57,9.57,0,0,1-2.73-6.78,9.83,9.83,0,0,1,.7-3.71,9.22,9.22,0,0,1,2-3.09,9,9,0,0,1,3-2.09,9.3,9.3,0,0,1,7.2,0,9,9,0,0,1,3,2.08,9.82,9.82,0,0,1,2,10.48Z"/><path d="M122.17,1.14,109.64,28h4.59l3.22-6.92h10.39L131.06,28h4.6L123.12,1.14Zm4,16.32h-7l2.95-6.32h1.09Z"/><polygon points="0 28.01 4.59 28.01 17.12 1.14 12.53 1.14 0 28.01"/><polygon points="48 11.05 34.79 11.05 34.79 1.14 30.42 1.14 30.42 28.01 34.79 28.01 34.79 14.96 48 14.96 48 28.01 52.37 28.01 52.37 1.14 48 1.14 48 11.05"/><path d="M102.6,13.77a5.17,5.17,0,0,0,2.88-2,6.22,6.22,0,0,0,1-3.59,7.72,7.72,0,0,0-.69-3.29,6.1,6.1,0,0,0-1.93-2.4,6.27,6.27,0,0,0-2.36-1,21.32,21.32,0,0,0-4.29-.31H90.43V28h6.81a22.57,22.57,0,0,0,5.49-.46A6.07,6.07,0,0,0,105.46,26a7.07,7.07,0,0,0,1.62-2.49,8.54,8.54,0,0,0,.57-3.11,7.18,7.18,0,0,0-1.35-4.47A5.5,5.5,0,0,0,102.6,13.77Zm-7.89-9h1.67c2.21,0,3.72.3,4.51.89a3.63,3.63,0,0,1,1.19,3.1,3.19,3.19,0,0,1-1.29,2.87,8.48,8.48,0,0,1-4.41.85H94.71Zm8,17.33a3.47,3.47,0,0,1-1.25,1.43,4.27,4.27,0,0,1-1.8.64,23.49,23.49,0,0,1-3.43.19h-1.5V15.79h2.82a12.09,12.09,0,0,1,2.12.14,5.26,5.26,0,0,1,1.42.46,3.66,3.66,0,0,1,1.53,1.49,4.58,4.58,0,0,1,.53,2.24A4.36,4.36,0,0,1,102.69,22.1Z"/><path d="M195.3,13.8A5.71,5.71,0,0,0,199,12a5.6,5.6,0,0,0,1.34-3.88,6,6,0,0,0-2.36-5,10.19,10.19,0,0,0-6.4-1.83A10.75,10.75,0,0,0,185,3a6.37,6.37,0,0,0-2.55,5h4.32a3.12,3.12,0,0,1,1.28-2.53,5.55,5.55,0,0,1,3.37-.9,4.91,4.91,0,0,1,3.2,1,3.2,3.2,0,0,1,1.2,2.62,3.21,3.21,0,0,1-1.33,2.8,6.69,6.69,0,0,1-3.94,1l-.43,0-.43,0V15.3a4.4,4.4,0,0,0,.46,0h.44a7.15,7.15,0,0,1,4.47,1.16,4.11,4.11,0,0,1,1.51,3.45,4.06,4.06,0,0,1-1.46,3.36A6.54,6.54,0,0,1,191,24.4a6.1,6.1,0,0,1-3.76-1,3.34,3.34,0,0,1-1.38-2.82v-.21h-4.59A6.93,6.93,0,0,0,184,25.81a10.7,10.7,0,0,0,6.83,2,12.31,12.31,0,0,0,7.43-2A6.35,6.35,0,0,0,201,20.43a6.67,6.67,0,0,0-1.46-4.5A6.74,6.74,0,0,0,195.3,13.8Z"/><polygon points="208.25 28.01 223.24 28.01 223.24 24.1 212.62 24.1 212.62 15.79 223.24 15.79 223.24 12.55 212.62 12.55 212.62 4.84 223.24 4.84 223.24 1.14 208.25 1.14 208.25 28.01"/><path d="M247.63,16.94c-.07.17-.19.42-.33.74a27.38,27.38,0,0,0-1.21,2.93c-.36-.92-.66-1.69-.91-2.31s-.44-1.07-.56-1.34L236.69,0l-6.35,28h4l2.88-13.23a19.16,19.16,0,0,0,.36-1.94c.08-.62.12-1.21.14-1.77a16.38,16.38,0,0,0,.56,1.67,18.08,18.08,0,0,0,.76,1.74l7,14.61,7-14.31a15.22,15.22,0,0,0,.77-1.88,12.25,12.25,0,0,0,.46-1.83c.08.51.17,1.16.26,1.94.11,1,.19,1.52.24,1.73l3,13.27h4.06l-6.5-28Z"/><path d="M146,1.45a6.23,6.23,0,0,0-2.35,1,6,6,0,0,0-1.94,2.4A7.76,7.76,0,0,0,141,8.17a7.13,7.13,0,0,0,.75,3.83,7.56,7.56,0,0,0,3.12,3,8.79,8.79,0,0,0,2.62.71L137.78,28h5.51l9.46-12.2h0V28H157V1.14h-6.77A21.32,21.32,0,0,0,146,1.45Zm6.79,3.32v7.71h-1.67a8.38,8.38,0,0,1-4.41-.85,3.17,3.17,0,0,1-1.3-2.87,3.63,3.63,0,0,1,1.19-3.1c.79-.59,2.3-.89,4.52-.89Z"/><path d="M304.23,1.14a21.32,21.32,0,0,0-4.29.31,6.27,6.27,0,0,0-2.36,1,6.1,6.1,0,0,0-1.93,2.4A7.76,7.76,0,0,0,295,8.17,7.22,7.22,0,0,0,295.7,12a7.66,7.66,0,0,0,3.13,3,8.62,8.62,0,0,0,2.62.71L291.75,28h5.51l9.45-12.2h0V28H311V1.14Zm-4.88,7.62a3.63,3.63,0,0,1,1.19-3.1c.79-.59,2.3-.89,4.52-.89h1.66v7.71h-1.66a8.4,8.4,0,0,1-4.42-.85A3.19,3.19,0,0,1,299.35,8.76Z"/><polygon points="277.71 1.37 266.92 28.25 270.87 28.25 277.63 11.42 278.57 11.42 285.33 28.25 289.28 28.25 278.49 1.37 277.71 1.37"/></svg>